<?xml version="1.0" encoding="utf-8"?>
<!-- Generator: Adobe Illustrator 26.2.1, SVG Export Plug-In . SVG Version: 6.00 Build 0)  -->
<svg version="1.1" id="Gnosis_Owl" xmlns="http://www.w3.org/2000/svg" xmlns:xlink="http://www.w3.org/1999/xlink" x="0px" y="0px"
	 viewBox="0 0 1261.95 709.85" style="enable-background:new 0 0 1261.95 709.85;" xml:space="preserve">
<style type="text/css">
	.st0{stroke:#000000;stroke-width:10;stroke-miterlimit:10;}
	.st1{fill:#FFFFFF;}
	.st2{fill:#FFFFFF;stroke:#FFFFFF;stroke-width:10;stroke-miterlimit:10;}
	.st3{fill:#133629;stroke:#133629;stroke-width:10;stroke-miterlimit:10;}
	.st4{fill:#F0EBDE;}
</style>
<rect class="st2" width="1261.95" height="709.85"/>
<path d="M644.36,359.26c-1.89,0-3.62-0.62-4.98-1.7l11.4-11.39c1.08,1.39,1.7,3.11,1.7,4.98
	C652.48,355.64,648.84,359.28,644.36,359.26z M631.45,323.69c-8.91,0-16.93,3.73-22.63,9.69c-0.77,0.81-1.51,1.68-2.2,2.56
	l24.8,24.79l24.8-24.82c-0.62-0.86-1.36-1.75-2.15-2.54C648.41,327.42,640.36,323.69,631.45,323.69z M623.55,357.58l-11.4-11.39
	c-1.08,1.36-1.7,3.09-1.7,4.98c-0.02,4.48,3.62,8.11,8.12,8.11C620.44,359.28,622.17,358.66,623.55,357.58z M655.85,351.19
	c0,6.34-5.15,11.49-11.49,11.49c-2.8,0-5.36-1.01-7.37-2.68l-5.53,5.53l-5.53-5.53c-2.01,1.68-4.55,2.68-7.37,2.68
	c-6.34,0-11.49-5.15-11.49-11.49c0-2.8,1.01-5.36,2.68-7.37l-2.59-2.58l-2.47-2.47c-2.87,4.74-4.53,10.27-4.53,16.2
	c0,17.28,14.01,31.26,31.27,31.26c17.26,0,31.27-14,31.27-31.26c0.05-5.96-1.6-11.49-4.48-16.2l-5.05,5.05
	C654.85,345.83,655.85,348.37,655.85,351.19z M418.87,255.58h-92.8v198.91h25.6V348.15c0-37.01,30.03-67.02,67.07-67.02
	c37.04,0,67.07,30,67.07,67.02v106.34h25.37V347.82C511.19,296.87,469.85,255.58,418.87,255.58z M131.12,354.94L131.12,354.94
	L131.12,354.94c0,54.97,44.62,99.52,99.64,99.48l1.07,0h70.55V341.86h-96.15v25.01h68.84v61.81h-42.38
	c-13.09,0-25.18-3.27-36.27-9.81c-11.09-6.54-19.87-15.39-26.31-26.57c-6.45-11.18-9.67-24.57-9.67-37.84
	c0-13.26,3.22-25.53,9.67-36.81c6.44-11.27,15.22-20.18,26.31-26.72c11.1-6.54,23.19-9.81,36.27-9.81h69.7v-25.68h-71.69
	C175.69,255.46,131.12,300,131.12,354.94z M718.52,304.3c9.13,15.37,13.69,32.1,13.69,50.22c0,18.11-4.56,34.86-13.69,50.21
	c-9.13,15.37-21.45,27.57-36.93,36.63c-15.49,9.06-32.36,13.58-50.62,13.58c-17.71,0-34.44-4.53-50.2-13.58
	c-15.77-9.06-28.08-21.26-36.93-36.63c-8.86-15.36-13.28-32.11-13.28-50.21c0-18.11,4.42-34.85,13.28-50.22
	c8.84-15.36,21.16-27.43,36.93-36.22c15.77-8.77,32.49-13.17,50.2-13.17c18.25,0,35.12,4.4,50.62,13.17
	C697.07,276.86,709.39,288.94,718.52,304.3z M666.02,354.96c0-19.14-15.51-34.65-34.63-34.65s-34.63,15.51-34.63,34.65
	s15.51,34.65,34.63,34.65S666.02,374.1,666.02,354.96z M884.34,255.5h106.91v198.92H884.34V255.5z M903.26,315.49
	c0,19.08,15.46,34.54,34.54,34.54s34.54-15.46,34.54-34.54s-15.46-34.54-34.54-34.54S903.26,296.42,903.26,315.49z M1050.45,289.52
	c6.16-5.59,14.08-8.38,23.75-8.38h56.64v-25.68h-61.41c-30.83,0-55.82,24.97-55.82,55.78v0.22l0.35,55.43h49.46h6.54
	c10.43,0,18.92,2.69,25.46,8.38c6.54,5.68,9.81,13.07,9.81,22.17c0,9.1-3.27,16.58-9.81,22.45c-6.54,5.88-15.03,8.81-25.46,8.81
	h-61.19v25.73h61.19h3.98c31.42,0,56.89-25.45,56.89-56.85v0v-55.33h-56.64c-9.67,0-17.59-2.79-23.75-8.38
	c-6.17-5.59-9.25-13.03-9.25-22.31C1041.2,302.46,1044.28,295.11,1050.45,289.52z M748.15,311.23v0.22l0.04,6
	c0.17,27.34,22.41,49.42,49.77,49.42l8.51-0.15c10.43,0,18.92,2.84,25.46,8.53c6.54,5.68,9.81,13.07,9.81,22.17
	c0,9.1-3.27,16.58-9.81,22.45c-6.54,5.88-15.03,8.81-25.46,8.81h-67.07v25.73h127.94V342.25h-58.61c-9.67,0-17.59-2.79-23.75-8.38
	c-6.17-5.59-9.25-13.03-9.25-22.31c0-9.09,3.08-16.44,9.25-22.03c6.16-5.59,14.08-8.38,23.75-8.38h58.61v-25.68h-63.38
	C773.14,255.46,748.15,280.43,748.15,311.23z"/>
</svg>
