<?xml version="1.0" encoding="utf-8"?>
<!-- Generator: Adobe Illustrator 26.2.1, SVG Export Plug-In . SVG Version: 6.00 Build 0)  -->
<svg version="1.1" id="LOGOS" xmlns="http://www.w3.org/2000/svg" xmlns:xlink="http://www.w3.org/1999/xlink" x="0px" y="0px"
	 viewBox="0 0 1261.95 709.85" style="enable-background:new 0 0 1261.95 709.85;" xml:space="preserve">
<style type="text/css">
	.st0{fill:#FFFFFF;stroke:#FFFFFF;stroke-width:10;stroke-miterlimit:10;}
	.st1{fill:#133629;}
	.st2{fill:#FFFFFF;}
	.st3{fill:#133629;stroke:#133629;stroke-width:10;stroke-miterlimit:10;}
	.st4{fill:#F0EBDE;}
	.st5{stroke:#231F20;stroke-width:10;stroke-miterlimit:10;}
</style>
<rect y="0" class="st5" width="1261.95" height="709.85"/>
<path class="st2" d="M193.45,355.01v0.24c0,57.09,46.32,103.36,103.45,103.36h43.71V431.8H297.6c-42.93,0-77.62-35.23-76.7-78.33
	c0.9-41.91,36.16-74.98,78.11-74.98h41.6v-26.56h-44C239.64,251.93,193.45,298.08,193.45,355.01z M972.57,251.93h-96.42v206.68
	h26.59V348.12c0-38.46,31.2-69.63,69.69-69.63c38.49,0,69.69,31.18,69.69,69.63v110.49h26.36V347.77
	C1068.5,294.84,1025.55,251.93,972.57,251.93z M491.31,321.21c0,5.71-2.02,10.53-6.06,14.47c-4.04,3.94-8.82,5.9-14.33,5.9h-61.46
	c-5.72,0-10.54-1.96-14.48-5.9c-3.94-3.94-5.91-8.76-5.91-14.47v-69.28h-26.59v206.68h26.59v-70.66c0-5.71,1.97-10.53,5.91-14.47
	c3.94-3.94,8.76-5.9,14.48-5.9h61.46c5.51,0,10.29,1.97,14.33,5.9c4.04,3.94,6.06,8.76,6.06,14.47v70.66h26.3V251.93h-26.3V321.21z
	 M743.22,251.93v206.68H854.3V251.93H743.22z M798.76,350.08c-19.82,0-35.89-16.07-35.89-35.89c0-19.82,16.07-35.89,35.89-35.89
	s35.89,16.07,35.89,35.89C834.65,334.01,818.58,350.08,798.76,350.08z M645.87,262.92c-3.51-7.79-8.48-11.68-14.91-11.68
	c-6.43,0-11.4,3.9-14.91,11.68l-88.57,195.69h206.08L645.87,262.92z M630.96,424.67c-19.82,0-35.89-16.07-35.89-35.89
	c0-19.82,16.07-35.89,35.89-35.89s35.89,16.07,35.89,35.89C666.85,408.6,650.78,424.67,630.96,424.67z"/>
</svg>
