<?xml version="1.0" encoding="utf-8"?>
<!-- Generator: Adobe Illustrator 26.2.1, SVG Export Plug-In . SVG Version: 6.00 Build 0)  -->
<svg version="1.1" id="LOGOS" xmlns="http://www.w3.org/2000/svg" xmlns:xlink="http://www.w3.org/1999/xlink" x="0px" y="0px"
	 viewBox="0 0 1261.95 709.85" style="enable-background:new 0 0 1261.95 709.85;" xml:space="preserve">
<style type="text/css">
	.st0{fill:#FFFFFF;stroke:#FFFFFF;stroke-width:10;stroke-miterlimit:10;}
	.st1{fill:#133629;}
	.st2{fill:#FFFFFF;}
	.st3{fill:#133629;stroke:#133629;stroke-width:10;stroke-miterlimit:10;}
	.st4{fill:#F0EBDE;}
	.st5{stroke:#231F20;stroke-width:10;stroke-miterlimit:10;}
</style>
<rect y="0" class="st5" width="1261.95" height="709.85"/>
<path class="st2" d="M193.45,355.01v0.24c0,57.09,46.32,103.36,103.45,103.36h43.71V431.8H297.6c-42.93,0-77.62-35.23-76.7-78.33
	c0.9-41.91,36.16-74.98,78.11-74.98h41.6v-26.56h-44C239.64,251.93,193.45,298.08,193.45,355.01z M972.57,251.93h-96.42v206.68
	h26.59V348.12c0-38.46,31.2-69.63,69.69-69.63c38.49,0,69.69,31.18,69.69,69.63v110.49h26.36V347.77
	C1068.5,294.84,1025.55,251.93,972.57,251.93z M491.31,321.21c0,5.71-2.02,10.53-6.06,14.47c-4.04,3.94-8.82,5.9-14.33,5.9h-61.46
	c-5.72,0-10.54-1.96-14.48-5.9c-3.94-3.94-5.91-8.76-5.91-14.47v-69.28h-26.59v206.68h26.59v-70.66c0-5.71,1.97-10.53,5.91-14.47
	c3.94-3.94,8.76-5.9,14.48-5.9h61.46c5.51,0,10.29,1.97,14.33,5.9c4.04,3.94,6.06,8.76,6.06,14.47v70.66h26.3V251.93h-26.3V321.21z
	 M743.22,251.93v206.68H854.3V251.93H743.22z M798.76,350.08c-19.82,0-35.89-16.07-35.89-35.89c0-19.82,16.07-35.89,35.89-35.89
	s35.89,16.07,35.89,35.89C834.65,334.01,818.58,350.08,798.76,350.08z M645.87,262.92c-3.51-7.79-8.48-11.68-14.91-11.68
	c-6.43,0-11.4,3.9-14.91,11.68l-88.57,195.69h206.08L645.87,262.92z M630.96,424.67c-19.82,0-35.89-16.07-35.89-35.89
	c0-19.82,16.07-35.89,35.89-35.89s35.89,16.07,35.89,35.89C666.85,408.6,650.78,424.67,630.96,424.67z M639.24,391.48l11.85-11.85
	c1.12,1.44,1.77,3.24,1.77,5.18c0,4.68-3.78,8.46-8.44,8.44C642.46,393.25,640.66,392.6,639.24,391.48z M654.53,366.34
	c-5.9-6.2-14.27-10.08-23.53-10.08c-9.26,0-17.6,3.88-23.53,10.08c-0.8,0.85-1.57,1.74-2.29,2.66l25.8,25.79l25.8-25.81
	C656.12,368.09,655.35,367.16,654.53,366.34z M631,388.77l-19.99-19.99c5.33-5.35,12.38-8.29,19.99-8.29
	c7.62,0,14.69,2.94,19.99,8.29L631,388.77z M617.61,393.27c1.94,0,3.73-0.65,5.18-1.77l-11.85-11.85c-1.12,1.42-1.77,3.21-1.77,5.18
	C609.14,389.49,612.92,393.27,617.61,393.27z M653.59,377.2c1.74,2.09,2.79,4.73,2.79,7.67c0,6.6-5.35,11.95-11.95,11.95
	c-2.91,0-5.58-1.05-7.67-2.79l-5.75,5.75l-5.75-5.75c-2.09,1.74-4.73,2.79-7.67,2.79c-6.6,0-11.95-5.35-11.95-11.95
	c0-2.91,1.05-5.58,2.79-7.67l-2.69-2.69l-2.56-2.56c-2.99,4.93-4.71,10.68-4.71,16.85c0,17.97,14.57,32.51,32.52,32.51
	c17.95,0,32.52-14.56,32.52-32.51c0.05-6.2-1.67-11.95-4.66-16.85L653.59,377.2z"/>
</svg>
