<?xml version="1.0" encoding="utf-8"?>
<!-- Generator: Adobe Illustrator 26.2.1, SVG Export Plug-In . SVG Version: 6.00 Build 0)  -->
<svg version="1.1" id="LOGOS" xmlns="http://www.w3.org/2000/svg" xmlns:xlink="http://www.w3.org/1999/xlink" x="0px" y="0px"
	 viewBox="0 0 1000 1000" style="enable-background:new 0 0 1000 1000;" xml:space="preserve">
<style type="text/css">
	.st0{fill:#FFFFFF;stroke:#FFFFFF;stroke-width:10;stroke-miterlimit:10;}
	.st1{fill:#133629;}
	.st2{fill:#FFFFFF;}
	.st3{fill:#133629;stroke:#133629;stroke-width:10;stroke-miterlimit:10;}
	.st4{fill:#F0EBDE;}
	.st5{stroke:#231F20;stroke-width:10;stroke-miterlimit:10;}
</style>
<rect y="0" class="st3" width="1000" height="1000"/>
<path class="st4" d="M389.63,369.82c0-9.95,3.28-19.02,8.95-26.2l59.97,59.95c-7.31,5.67-16.38,8.94-26.21,8.94
	C408.65,412.52,389.5,393.37,389.63,369.82z M568.03,412.39c23.56,0.13,42.71-19.02,42.71-42.7c0-9.82-3.28-18.89-8.95-26.2
	l-59.97,59.95C549.01,409.12,558.08,412.39,568.03,412.39z M500,420.2L369.47,289.72c3.65-4.66,7.56-9.19,11.59-13.48
	c29.99-31.36,72.19-51.01,119.07-51.01c46.87,0,89.2,19.65,119.06,51.01c4.16,4.16,8.06,8.82,11.34,13.35L500,420.2z M398.95,288.59
	l101.17,101.14L601.3,288.59c-26.84-27.08-62.62-41.94-101.17-41.94S425.91,261.51,398.95,288.59z M500,554.34
	c90.84,0,164.55-73.68,164.55-164.49c0.25-31.36-8.44-60.46-23.56-85.27l-26.59,26.58c8.82,10.58,14.11,23.93,14.11,38.79
	c0,33.38-27.09,60.46-60.48,60.46c-14.74,0-28.22-5.29-38.81-14.11l-29.1,29.09l-29.11-29.09c-10.58,8.82-23.94,14.11-38.81,14.11
	c-33.39,0-60.48-27.08-60.48-60.46c0-14.74,5.29-28.21,14.11-38.79l-13.61-13.6l-12.98-12.97c-15.12,24.94-23.81,54.03-23.81,85.27
	C335.45,480.78,409.16,554.34,500,554.34z M156.56,693.44v0.19c0,44.81,36.36,81.14,81.2,81.14h34.31v-21.04h-33.77
	c-33.7,0-60.93-27.65-60.21-61.49c0.7-32.9,28.38-58.85,61.32-58.85h32.66v-20.85h-34.54C192.82,612.53,156.56,648.76,156.56,693.44
	z M768.14,612.53h-75.68v162.23h20.88v-86.73c0-30.19,24.49-54.66,54.71-54.66c30.21,0,54.71,24.47,54.71,54.66v86.73h20.7v-87
	C843.44,646.22,809.72,612.53,768.14,612.53z M390.37,666.92c0,4.48-1.59,8.27-4.76,11.36c-3.17,3.09-6.92,4.64-11.25,4.64h-48.25
	c-4.49,0-8.27-1.54-11.37-4.64c-3.09-3.09-4.64-6.87-4.64-11.36v-54.39h-20.88v162.23h20.88V719.3c0-4.48,1.54-8.26,4.64-11.36
	c3.09-3.09,6.88-4.64,11.37-4.64h48.25c4.33,0,8.08,1.55,11.25,4.64c3.17,3.09,4.76,6.88,4.76,11.36v55.47h20.64V612.53h-20.64
	V666.92z M588.1,612.53v162.23h87.2V612.53H588.1z M631.7,689.57c-15.56,0-28.17-12.61-28.17-28.17c0-15.56,12.61-28.17,28.17-28.17
	s28.17,12.61,28.17,28.17C659.87,676.96,647.26,689.57,631.7,689.57z M511.69,621.16c-2.75-6.11-6.65-9.17-11.7-9.17
	c-5.05,0-8.95,3.06-11.7,9.17l-69.53,153.6h161.77L511.69,621.16z M499.99,748.12c-15.56,0-28.17-12.61-28.17-28.17
	c0-15.56,12.61-28.17,28.17-28.17s28.17,12.61,28.17,28.17C528.16,735.51,515.54,748.12,499.99,748.12z"/>
</svg>
