<?xml version="1.0" encoding="utf-8"?>
<!-- Generator: Adobe Illustrator 26.2.1, SVG Export Plug-In . SVG Version: 6.00 Build 0)  -->
<svg version="1.1" id="LOGOS" xmlns="http://www.w3.org/2000/svg" xmlns:xlink="http://www.w3.org/1999/xlink" x="0px" y="0px"
	 viewBox="0 0 1261.95 709.85" style="enable-background:new 0 0 1261.95 709.85;" xml:space="preserve">
<style type="text/css">
	.st0{fill:#FFFFFF;stroke:#FFFFFF;stroke-width:10;stroke-miterlimit:10;}
	.st1{fill:#133629;}
	.st2{fill:#FFFFFF;}
	.st3{fill:#133629;stroke:#133629;stroke-width:10;stroke-miterlimit:10;}
	.st4{fill:#F0EBDE;}
	.st5{stroke:#231F20;stroke-width:10;stroke-miterlimit:10;}
</style>
<rect y="0" class="st0" width="1261.95" height="709.85"/>
<path d="M193.95,344.32c0-5.28,1.74-10.1,4.75-13.91l31.85,31.84c-3.88,3.01-8.7,4.75-13.92,4.75
	C204.05,367,193.88,356.83,193.95,344.32z M288.69,366.93c12.51,0.07,22.68-10.1,22.68-22.67c0-5.22-1.74-10.03-4.75-13.91
	l-31.85,31.84C278.59,365.19,283.4,366.93,288.69,366.93z M313.31,323.79c4.68,5.62,7.49,12.71,7.49,20.6
	c0,17.72-14.39,32.1-32.12,32.1c-7.83,0-14.99-2.81-20.61-7.49l-15.46,15.45L237.17,369c-5.62,4.68-12.71,7.49-20.61,7.49
	c-17.73,0-32.12-14.38-32.12-32.1c0-7.83,2.81-14.98,7.49-20.6l-7.23-7.22l-6.89-6.89c-8.03,13.24-12.65,28.69-12.65,45.28
	c0,48.29,39.14,87.35,87.38,87.35c48.24,0,87.38-39.13,87.38-87.35c0.13-16.65-4.48-32.1-12.51-45.28L313.31,323.79z M252.56,371.08
	l-69.32-69.29c1.94-2.47,4.01-4.88,6.16-7.16c15.92-16.65,38.34-27.09,63.23-27.09c24.89,0,47.37,10.43,63.23,27.09
	c2.21,2.21,4.28,4.68,6.02,7.09L252.56,371.08z M198.9,301.18l53.73,53.71l53.73-53.71c-14.25-14.38-33.25-22.27-53.73-22.27
	C232.15,278.91,213.22,286.8,198.9,301.18z M359.31,354.99v0.2c0,48.11,39.03,87.11,87.19,87.11h36.84v-22.59h-36.25
	c-36.18,0-65.42-29.69-64.64-66.02c0.76-35.32,30.47-63.19,65.83-63.19h35.06v-22.38h-37.08
	C398.24,268.12,359.31,307.02,359.31,354.99z M822.64,268.12h93.62v174.18h-93.62V268.12z M839.2,320.59
	c0,16.7,13.54,30.24,30.24,30.24c16.7,0,30.24-13.54,30.24-30.24c0-16.7-13.54-30.24-30.24-30.24
	C852.74,290.35,839.2,303.89,839.2,320.59z M610.34,326.51c0,4.81-1.7,8.88-5.11,12.19c-3.4,3.32-7.43,4.98-12.08,4.98h-51.8
	c-4.82,0-8.88-1.66-12.2-4.98c-3.32-3.32-4.98-7.38-4.98-12.19v-58.39h-22.41v174.18h22.41v-59.55c0-4.81,1.66-8.87,4.98-12.19
	c3.32-3.32,7.39-4.98,12.2-4.98h51.8c4.65,0,8.67,1.66,12.08,4.98c3.4,3.32,5.11,7.38,5.11,12.19v59.55h22.17V268.12h-22.17V326.51z
	 M1015.93,268.12h-81.26v174.18h22.41v-93.11c0-32.41,26.3-58.68,58.73-58.68c32.44,0,58.73,26.27,58.73,58.68v93.11h22.22V348.9
	C1096.77,304.29,1060.58,268.12,1015.93,268.12z M740.59,277.39l73.91,164.92H640.82l74.65-164.92c2.96-6.56,7.15-9.85,12.56-9.85
	C733.45,267.54,737.64,270.83,740.59,277.39z M728.03,353.21c-16.7,0-30.24,13.54-30.24,30.24c0,16.7,13.54,30.24,30.24,30.24
	c16.7,0,30.24-13.54,30.24-30.24C758.27,366.75,744.73,353.21,728.03,353.21z"/>
</svg>
