<?xml version="1.0" encoding="utf-8"?>
<!-- Generator: Adobe Illustrator 26.2.1, SVG Export Plug-In . SVG Version: 6.00 Build 0)  -->
<svg version="1.1" id="Gnosis_Owl" xmlns="http://www.w3.org/2000/svg" xmlns:xlink="http://www.w3.org/1999/xlink" x="0px" y="0px"
	 viewBox="0 0 1002 202" style="enable-background:new 0 0 1002 202;" xml:space="preserve">
<style type="text/css">
	.st0{stroke:#000000;stroke-width:10;stroke-miterlimit:10;}
	.st1{fill:#FFFFFF;}
	.st2{fill:#FFFFFF;stroke:#FFFFFF;stroke-width:10;stroke-miterlimit:10;}
	.st3{fill:#133629;stroke:#133629;stroke-width:10;stroke-miterlimit:10;}
	.st4{fill:#F0EBDE;}
</style>
<path d="M514.38,105.33c-1.89,0-3.62-0.62-4.98-1.7l11.4-11.39c1.08,1.39,1.7,3.11,1.7,4.98
	C522.5,101.72,518.86,105.36,514.38,105.33z M501.48,69.77c-8.91,0-16.93,3.73-22.63,9.69c-0.77,0.81-1.51,1.68-2.2,2.56l24.8,24.79
	L526.26,82c-0.62-0.86-1.36-1.75-2.15-2.54C518.43,73.5,510.38,69.77,501.48,69.77z M493.58,103.66l-11.4-11.39
	c-1.08,1.36-1.7,3.09-1.7,4.98c-0.02,4.48,3.62,8.11,8.12,8.11C490.46,105.36,492.19,104.73,493.58,103.66z M525.87,97.27
	c0,6.34-5.15,11.49-11.49,11.49c-2.8,0-5.36-1.01-7.37-2.68l-5.53,5.53l-5.53-5.53c-2.01,1.68-4.55,2.68-7.37,2.68
	c-6.34,0-11.49-5.15-11.49-11.49c0-2.8,1.01-5.36,2.68-7.37l-2.59-2.58l-2.47-2.47c-2.87,4.74-4.53,10.27-4.53,16.2
	c0,17.28,14.01,31.26,31.27,31.26c17.26,0,31.27-14,31.27-31.26c0.05-5.96-1.6-11.49-4.48-16.2l-5.05,5.05
	C524.87,91.91,525.87,94.44,525.87,97.27z M288.89,1.65h-92.8v198.91h25.6V94.23c0-37.01,30.03-67.02,67.07-67.02
	c37.04,0,67.07,30,67.07,67.02v106.34h25.37V93.9C381.21,42.95,339.88,1.65,288.89,1.65z M1.14,101.01L1.14,101.01L1.14,101.01
	c0,54.97,44.62,99.52,99.64,99.48l1.07,0h70.55V87.94H76.24v25.01h68.84v61.81H102.7c-13.09,0-25.18-3.27-36.27-9.81
	c-11.09-6.54-19.87-15.39-26.31-26.57c-6.45-11.18-9.67-24.57-9.67-37.84c0-13.26,3.22-25.53,9.67-36.81
	c6.44-11.27,15.22-20.18,26.31-26.72c11.1-6.54,23.19-9.81,36.27-9.81h69.7V1.53H100.7C45.72,1.53,1.14,46.07,1.14,101.01z
	 M588.54,50.37c9.13,15.37,13.69,32.1,13.69,50.22c0,18.11-4.56,34.86-13.69,50.21c-9.13,15.37-21.45,27.57-36.93,36.63
	c-15.49,9.06-32.36,13.58-50.62,13.58c-17.71,0-34.44-4.53-50.2-13.58c-15.77-9.06-28.08-21.26-36.93-36.63
	c-8.86-15.36-13.28-32.11-13.28-50.21c0-18.11,4.42-34.85,13.28-50.22c8.84-15.36,21.16-27.43,36.93-36.22
	c15.77-8.77,32.49-13.17,50.2-13.17c18.25,0,35.12,4.4,50.62,13.17C567.09,22.94,579.41,35.02,588.54,50.37z M536.05,101.04
	c0-19.14-15.51-34.65-34.63-34.65s-34.63,15.51-34.63,34.65s15.51,34.65,34.63,34.65S536.05,120.17,536.05,101.04z M754.36,1.58
	h106.91v198.92H754.36V1.58z M773.28,61.57c0,19.08,15.46,34.54,34.54,34.54s34.54-15.46,34.54-34.54s-15.46-34.54-34.54-34.54
	S773.28,42.49,773.28,61.57z M920.47,35.6c6.16-5.59,14.08-8.38,23.75-8.38h56.64V1.53h-61.41c-30.83,0-55.82,24.97-55.82,55.78
	v0.22l0.35,55.43h49.46h6.54c10.43,0,18.92,2.69,25.46,8.38c6.54,5.68,9.81,13.07,9.81,22.17c0,9.1-3.27,16.58-9.81,22.45
	c-6.54,5.88-15.03,8.81-25.46,8.81h-61.19v25.73h61.19h3.98c31.42,0,56.89-25.45,56.89-56.85v0V88.32h-56.64
	c-9.67,0-17.59-2.79-23.75-8.38c-6.17-5.59-9.25-13.03-9.25-22.31C911.22,48.53,914.3,41.19,920.47,35.6z M618.17,57.31v0.22l0.04,6
	c0.17,27.34,22.41,49.42,49.77,49.42l8.51-0.15c10.43,0,18.92,2.84,25.46,8.53c6.54,5.68,9.81,13.07,9.81,22.17
	c0,9.1-3.27,16.58-9.81,22.45c-6.54,5.88-15.03,8.81-25.46,8.81h-67.07v25.73h127.94V88.32h-58.61c-9.67,0-17.59-2.79-23.75-8.38
	c-6.17-5.59-9.25-13.03-9.25-22.31c0-9.09,3.08-16.44,9.25-22.03c6.16-5.59,14.08-8.38,23.75-8.38h58.61V1.53H674
	C643.17,1.53,618.17,26.51,618.17,57.31z"/>
</svg>
