<?xml version="1.0" encoding="utf-8"?>
<!-- Generator: Adobe Illustrator 26.2.1, SVG Export Plug-In . SVG Version: 6.00 Build 0)  -->
<svg version="1.1" id="LOGOS" xmlns="http://www.w3.org/2000/svg" xmlns:xlink="http://www.w3.org/1999/xlink" x="0px" y="0px"
	 viewBox="0 0 1000 436" style="enable-background:new 0 0 1000 436;" xml:space="preserve">
<style type="text/css">
	.st0{fill:#FFFFFF;stroke:#FFFFFF;stroke-width:10;stroke-miterlimit:10;}
	.st1{fill:#133629;}
	.st2{fill:#FFFFFF;}
	.st3{fill:#133629;stroke:#133629;stroke-width:10;stroke-miterlimit:10;}
	.st4{fill:#F0EBDE;}
	.st5{stroke:#231F20;stroke-width:10;stroke-miterlimit:10;}
</style>
<path class="st1" d="M78.92,336.29v0.23c0,54.94,44.58,99.48,99.56,99.48h42.07v-25.8h-41.4c-41.32,0-74.71-33.91-73.82-75.39
	c0.86-40.34,34.8-72.16,75.18-72.16h40.04v-25.56H178.2C123.37,237.09,78.92,281.5,78.92,336.29z M828.76,237.09h-92.8V436h25.6
	V329.66c0-37.01,30.03-67.02,67.07-67.02c37.04,0,67.07,30,67.07,67.02V436h25.37V329.33C921.08,278.38,879.75,237.09,828.76,237.09
	z M365.58,303.77c0,5.5-1.95,10.14-5.83,13.92c-3.89,3.79-8.49,5.68-13.79,5.68H286.8c-5.5,0-10.15-1.89-13.94-5.68
	c-3.79-3.79-5.69-8.43-5.69-13.92v-66.68h-25.6V436h25.6v-68.01c0-5.49,1.89-10.13,5.69-13.92c3.79-3.79,8.44-5.68,13.94-5.68h59.15
	c5.31,0,9.91,1.9,13.79,5.68c3.88,3.79,5.83,8.43,5.83,13.92V436h25.31V237.09h-25.31V303.77z M608.02,237.09V436h106.91V237.09
	H608.02z M661.48,331.54c-19.08,0-34.54-15.46-34.54-34.54c0-19.08,15.46-34.54,34.54-34.54s34.54,15.46,34.54,34.54
	C696.02,316.08,680.56,331.54,661.48,331.54z M514.33,247.67c-3.38-7.49-8.16-11.24-14.35-11.24c-6.19,0-10.97,3.75-14.35,11.24
	L400.39,436h198.34L514.33,247.67z M499.98,403.33c-19.08,0-34.54-15.46-34.54-34.54c0-19.08,15.46-34.54,34.54-34.54
	c19.08,0,34.54,15.46,34.54,34.54C534.52,387.87,519.06,403.33,499.98,403.33z M673,0.55h63.38v25.68h-58.61
	c-9.67,0-17.59,2.8-23.75,8.38c-6.17,5.59-9.25,12.93-9.25,22.03c0,9.29,3.08,16.73,9.25,22.31c6.16,5.59,14.08,8.38,23.75,8.38
	h58.61v112.17H608.43v-25.73h67.07c10.43,0,18.92-2.94,25.46-8.81c6.54-5.87,9.81-13.36,9.81-22.45c0-9.09-3.27-16.48-9.81-22.17
	c-6.54-5.68-15.03-8.53-25.46-8.53l-8.51,0.15c-27.37,0-49.6-22.08-49.77-49.42l-0.04-6v-0.22C617.17,25.52,642.17,0.55,673,0.55z
	 M938.45,0.55h61.41v25.68h-56.64c-9.67,0-17.59,2.8-23.75,8.38c-6.17,5.59-9.25,12.93-9.25,22.03c0,9.29,3.08,16.73,9.25,22.31
	c6.16,5.59,14.08,8.38,23.75,8.38h56.64v55.33v0c0,31.4-25.47,56.85-56.89,56.85h-3.98h-61.19v-25.73h61.19
	c10.43,0,18.92-2.94,25.46-8.81c6.54-5.87,9.81-13.36,9.81-22.45c0-9.09-3.27-16.48-9.81-22.17c-6.54-5.68-15.03-8.38-25.46-8.38
	h-6.54h-49.46l-0.35-55.43v-0.22C882.63,25.52,907.62,0.55,938.45,0.55z M99.7,0.55h71.69v25.68h-69.7
	c-13.09,0-25.18,3.27-36.27,9.81c-11.09,6.54-19.87,15.45-26.31,26.72c-6.45,11.28-9.67,23.55-9.67,36.81
	c0,13.27,3.22,26.66,9.67,37.84c6.44,11.18,15.22,20.04,26.31,26.57c11.1,6.54,23.19,9.81,36.27,9.81h42.38v-61.81H75.24V86.95
	h96.15v112.55h-70.55l-1.07,0C44.76,199.55,0.14,155,0.14,100.03v0v0C0.14,45.09,44.72,0.55,99.7,0.55z M380.21,92.91v106.67h-25.37
	V93.24c0-37.01-30.03-67.02-67.07-67.02c-37.04,0-67.07,30-67.07,67.02v106.34h-25.6V0.66h92.8
	C338.88,0.66,380.21,41.96,380.21,92.91z M753.36,0.59v198.92h106.91V0.59H753.36z M806.82,95.12c-19.08,0-34.54-15.46-34.54-34.54
	s15.46-34.54,34.54-34.54s34.54,15.46,34.54,34.54S825.89,95.12,806.82,95.12z M587.54,49.39c-9.13-15.36-21.45-27.43-36.93-36.22
	C535.12,4.4,518.25,0,499.99,0c-17.71,0-34.44,4.4-50.2,13.17c-15.77,8.78-28.08,20.86-36.93,36.22
	c-8.86,15.37-13.28,32.1-13.28,50.22c0,18.11,4.42,34.86,13.28,50.21c8.84,15.37,21.16,27.57,36.93,36.63
	c15.77,9.06,32.49,13.58,50.2,13.58c18.25,0,35.12-4.53,50.62-13.58c15.48-9.06,27.8-21.26,36.93-36.63
	c9.13-15.36,13.69-32.11,13.69-50.21C601.23,81.49,596.67,64.76,587.54,49.39z M500.41,134.7c-19.13,0-34.63-15.51-34.63-34.65
	s15.51-34.65,34.63-34.65s34.63,15.51,34.63,34.65S519.54,134.7,500.41,134.7z"/>
</svg>
