<?xml version="1.0" encoding="utf-8"?>
<!-- Generator: Adobe Illustrator 26.2.1, SVG Export Plug-In . SVG Version: 6.00 Build 0)  -->
<svg version="1.1" id="LOGOS" xmlns="http://www.w3.org/2000/svg" xmlns:xlink="http://www.w3.org/1999/xlink" x="0px" y="0px"
	 viewBox="0 0 1885.48 199.58" style="enable-background:new 0 0 1885.48 199.58;" xml:space="preserve">
<style type="text/css">
	.st0{fill:#FFFFFF;stroke:#FFFFFF;stroke-width:10;stroke-miterlimit:10;}
	.st1{fill:#133629;}
	.st2{fill:#FFFFFF;}
	.st3{fill:#133629;stroke:#133629;stroke-width:10;stroke-miterlimit:10;}
	.st4{fill:#F0EBDE;}
	.st5{stroke:#231F20;stroke-width:10;stroke-miterlimit:10;}
</style>
<path d="M1053.59,98.65v0.23c0,54.27,44.03,98.27,98.35,98.27h41.56v-25.49h-40.89c-40.81,0-73.8-33.49-72.92-74.47
	c0.85-39.84,34.37-71.28,74.26-71.28h39.55V0.66h-41.83C1097.5,0.66,1053.59,44.53,1053.59,98.65z M1794.28,0.66h-91.66v196.48
	h25.28V92.11c0-36.56,29.66-66.2,66.25-66.2c36.59,0,66.26,29.64,66.26,66.2v105.04h25.06V91.77
	C1885.48,41.45,1844.65,0.66,1794.28,0.66z M1336.76,66.52c0,5.43-1.92,10.01-5.76,13.75c-3.84,3.75-8.38,5.61-13.62,5.61h-58.43
	c-5.43,0-10.02-1.87-13.77-5.61c-3.75-3.74-5.62-8.32-5.62-13.75V0.66h-25.28v196.48h25.28v-67.18c0-5.43,1.87-10.01,5.62-13.75
	c3.74-3.74,8.33-5.61,13.77-5.61h58.43c5.24,0,9.79,1.87,13.62,5.61c3.84,3.75,5.76,8.33,5.76,13.75v67.18h25V0.66h-25V66.52z
	 M1576.24,0.66v196.49h105.61V0.66H1576.24z M1629.04,93.96c-18.84,0-34.12-15.27-34.12-34.12c0-18.84,15.27-34.12,34.12-34.12
	s34.12,15.27,34.12,34.12C1663.16,78.69,1647.89,93.96,1629.04,93.96z M1483.69,11.11c-3.34-7.4-8.06-11.11-14.17-11.11
	c-6.11,0-10.84,3.71-14.17,11.11l-84.2,186.03h195.92L1483.69,11.11z M1469.52,164.88c-18.84,0-34.12-15.27-34.12-34.12
	c0-18.84,15.27-34.12,34.12-34.12c18.84,0,34.12,15.27,34.12,34.12C1503.64,149.6,1488.36,164.88,1469.52,164.88z M319.9,199.31
	c29.79,0,59.03-10.02,76.64-23.56V89.36h-80.7v37.37h37.37v22.75c-11.1,5.96-21.39,8.39-33.31,8.39c-32.77,0-51.99-25.45-51.99-56.6
	c0-35.75,22.75-56.6,50.1-56.6c20.58,0,35.74,8.94,46.04,18.96L396,36.56c-19.77-22.75-50.1-34.39-77.99-34.39
	c-61.47,0-97.49,43.33-97.49,99.11C220.52,163.83,264.39,199.31,319.9,199.31z M424.51,197.14h42.24v-66.62
	c0-20.58,9.75-30.6,24.37-30.6c13.81,0,21.12,6.23,21.12,28.16v69.05h42.24V117.8c0-41.97-20.04-55.51-47.39-55.51
	c-15.44,0-29.52,5.96-39.81,17.87h-0.54V64.72h-42.24V197.14z M647.39,62.28c-42.79,0-71.76,28.43-71.76,68.78
	c0,40.08,28.97,68.51,71.76,68.51c41.7,0,71.5-27.89,71.5-68.51C718.88,90.18,689.09,62.28,647.39,62.28z M647.39,162.21
	c-16.79,0-28.97-13.54-28.97-31.14c0-18.14,11.92-31.14,28.97-31.14c16.52,0,28.71,12.73,28.71,31.14
	C676.1,149.21,663.37,162.21,647.39,162.21z M785.19,199.58c36.28,0,53.89-17.87,53.89-42.52c0-26-15.98-33.58-45.22-43.6
	c-13.27-4.6-18.15-7.58-18.15-11.64c0-5.14,5.69-7.31,10.57-7.31c8.93,0,20.3,4.6,29.51,13.81l20.04-29.52
	c-15.44-11.37-30.07-16.52-50.1-16.52c-27.62,0-49.56,15.44-49.56,42.24c0,25.46,19.5,36.29,41.71,43.06
	c16.51,5.15,20.57,7.85,20.57,12.19c0,4.87-4.33,7.85-12.72,7.85c-12.19,0-23.56-4.87-34.66-14.89l-19.77,27.35
	C745.92,193.08,764.34,199.58,785.19,199.58z M883.33,48.2c14.63,0,25.46-10.56,25.46-24.37C908.79,10.56,897.96,0,883.33,0
	c-14.62,0-25.18,10.83-25.18,23.83C858.15,37.64,868.71,48.2,883.33,48.2z M862.21,197.14h42.24V64.72h-42.24V197.14z
	 M978.77,199.58c36.29,0,53.89-17.87,53.89-42.52c0-26-15.97-33.58-45.22-43.6c-13.26-4.6-18.14-7.58-18.14-11.64
	c0-5.14,5.68-7.31,10.56-7.31c8.94,0,20.31,4.6,29.51,13.81l20.04-29.52c-15.44-11.37-30.06-16.52-50.1-16.52
	c-27.62,0-49.55,15.44-49.55,42.24c0,25.46,19.5,36.29,41.7,43.06c16.52,5.15,20.58,7.85,20.58,12.19c0,4.87-4.33,7.85-12.73,7.85
	c-12.19,0-23.56-4.87-34.66-14.89l-19.77,27.35C939.51,193.08,957.92,199.58,978.77,199.58z M32.86,87.68
	c0-6.03,1.99-11.53,5.42-15.89l36.37,36.36c-4.43,3.44-9.93,5.42-15.89,5.42C44.39,113.58,32.78,101.97,32.86,87.68z M141.05,113.5
	c14.29,0.08,25.9-11.53,25.9-25.89c0-5.96-1.99-11.46-5.42-15.89l-36.37,36.36C129.51,111.51,135.01,113.5,141.05,113.5z
	 M169.17,64.24c5.35,6.42,8.56,14.51,8.56,23.52c0,20.24-16.43,36.66-36.68,36.66c-8.94,0-17.11-3.21-23.53-8.55l-17.65,17.64
	l-17.65-17.64c-6.42,5.35-14.52,8.55-23.53,8.55c-20.25,0-36.68-16.42-36.68-36.66c0-8.94,3.21-17.11,8.56-23.52l-8.25-8.25
	l-7.87-7.87C5.27,63.24,0,80.89,0,99.83c0,55.15,44.7,99.75,99.79,99.75c55.09,0,99.79-44.68,99.79-99.75
	c0.15-19.02-5.12-36.66-14.29-51.71L169.17,64.24z M172.07,30.93C153.96,11.92,128.29,0,99.86,0C71.44,0,45.84,11.92,27.66,30.93
	c-2.44,2.6-4.81,5.35-7.03,8.17l79.16,79.13l79.16-79.2C176.96,36.28,174.59,33.45,172.07,30.93z M99.86,99.75L38.51,38.42
	C54.86,22,76.48,12.98,99.86,12.98c23.38,0,45.08,9.01,61.35,25.43L99.86,99.75z"/>
</svg>
