<?xml version="1.0" encoding="utf-8"?>
<!-- Generator: Adobe Illustrator 26.2.1, SVG Export Plug-In . SVG Version: 6.00 Build 0)  -->
<svg version="1.1" id="LOGOS" xmlns="http://www.w3.org/2000/svg" xmlns:xlink="http://www.w3.org/1999/xlink" x="0px" y="0px"
	 viewBox="0 0 1911 199.58" style="enable-background:new 0 0 1911 199.58;" xml:space="preserve">
<style type="text/css">
	.st0{fill:#FFFFFF;stroke:#FFFFFF;stroke-width:10;stroke-miterlimit:10;}
	.st1{fill:#133629;}
	.st2{fill:#FFFFFF;}
	.st3{fill:#133629;stroke:#133629;stroke-width:10;stroke-miterlimit:10;}
	.st4{fill:#F0EBDE;}
	.st5{stroke:#231F20;stroke-width:10;stroke-miterlimit:10;}
</style>
<path d="M753.22,199.51h106.91V0.59H753.22V199.51z M672.86,0.55h63.38v25.68h-58.61c-9.67,0-17.59,2.8-23.75,8.38
	c-6.17,5.59-9.25,12.93-9.25,22.03c0,9.29,3.08,16.73,9.25,22.31c6.16,5.59,14.08,8.38,23.75,8.38h58.61v112.17H608.29v-25.73h67.07
	c10.43,0,18.92-2.94,25.46-8.81c6.54-5.87,9.81-13.36,9.81-22.45c0-9.09-3.27-16.48-9.81-22.17c-6.54-5.68-15.03-8.53-25.46-8.53
	l-8.51,0.15c-27.37,0-49.6-22.08-49.77-49.42l-0.04-6v-0.22C617.04,25.52,642.03,0.55,672.86,0.55z M938.31,0.55h61.41v25.68h-56.64
	c-9.67,0-17.59,2.8-23.75,8.38c-6.17,5.59-9.25,12.93-9.25,22.03c0,9.29,3.08,16.73,9.25,22.31c6.16,5.59,14.08,8.38,23.75,8.38
	h56.64v55.33v0c0,31.4-25.47,56.85-56.89,56.85h-3.98h-61.19v-25.73h61.19c10.43,0,18.92-2.94,25.46-8.81
	c6.54-5.87,9.81-13.36,9.81-22.45c0-9.09-3.27-16.48-9.81-22.17c-6.54-5.68-15.03-8.38-25.46-8.38h-6.54h-49.46l-0.35-55.43v-0.22
	C882.49,25.52,907.48,0.55,938.31,0.55z M99.56,0.55h71.69v25.68h-69.7c-13.09,0-25.18,3.27-36.27,9.81
	c-11.09,6.54-19.87,15.45-26.31,26.72C32.52,74.03,29.3,86.3,29.3,99.56c0,13.27,3.22,26.66,9.67,37.84
	c6.44,11.18,15.22,20.04,26.31,26.57c11.1,6.54,23.19,9.81,36.27,9.81h42.38v-61.81H75.1V86.95h96.15v112.55H100.7l-1.07,0
	C44.62,199.55,0,155,0,100.03v0v0C0,45.09,44.58,0.55,99.56,0.55z M380.07,92.91v106.67H354.7V93.24
	c0-37.01-30.03-67.02-67.07-67.02c-37.04,0-67.07,30-67.07,67.02v106.34h-25.6V0.66h92.8C338.74,0.66,380.07,41.96,380.07,92.91z
	 M841.22,60.58c0,19.08-15.46,34.54-34.54,34.54c-19.08,0-34.54-15.46-34.54-34.54s15.46-34.54,34.54-34.54
	C825.75,26.05,841.22,41.51,841.22,60.58z M1068.83,99.87v0.23c0,54.94,44.58,99.41,99.56,99.41h42.07v-25.73h-41.4
	c-41.32,0-74.71-33.91-73.82-75.39c0.86-40.34,34.8-72.16,75.18-72.16h40.04V0.66h-42.35C1113.28,0.66,1068.83,45.08,1068.83,99.87z
	 M1818.68,0.66h-92.8v198.84h25.6V93.24c0-37.01,30.03-67.02,67.07-67.02c37.04,0,67.07,30,67.07,67.02v106.26H1911V92.91
	C1911,41.96,1869.67,0.66,1818.68,0.66z M1355.49,67.35c0,5.5-1.95,10.14-5.83,13.92c-3.89,3.79-8.49,5.68-13.79,5.68h-59.15
	c-5.5,0-10.15-1.89-13.94-5.68c-3.79-3.79-5.69-8.43-5.69-13.92V0.66h-25.6v198.84h25.6v-67.93c0-5.49,1.89-10.13,5.69-13.92
	c3.79-3.79,8.44-5.68,13.94-5.68h59.15c5.31,0,9.91,1.9,13.79,5.68c3.88,3.79,5.83,8.43,5.83,13.92v67.93h25.31V0.66h-25.31V67.35z
	 M1597.94,0.66v198.84h106.91V0.66H1597.94z M1651.4,95.12c-19.08,0-34.54-15.46-34.54-34.54c0-19.08,15.46-34.54,34.54-34.54
	s34.54,15.46,34.54,34.54C1685.93,79.66,1670.47,95.12,1651.4,95.12z M1504.25,11.24C1500.87,3.75,1496.09,0,1489.9,0
	c-6.19,0-10.97,3.75-14.35,11.24l-85.25,188.26h198.34L1504.25,11.24z M1489.9,166.91c-19.08,0-34.54-15.46-34.54-34.54
	c0-19.08,15.46-34.54,34.54-34.54s34.54,15.46,34.54,34.54C1524.44,151.45,1508.97,166.91,1489.9,166.91z M587.4,49.39
	c-9.13-15.36-21.45-27.43-36.93-36.22C534.98,4.4,518.11,0,499.85,0c-17.71,0-34.44,4.4-50.2,13.17
	c-15.77,8.78-28.08,20.86-36.93,36.22c-8.86,15.37-13.28,32.1-13.28,50.22c0,18.11,4.42,34.86,13.28,50.21
	c8.84,15.37,21.16,27.58,36.93,36.63c15.77,9.06,32.49,13.58,50.2,13.58c18.25,0,35.12-4.53,50.62-13.58
	c15.48-9.06,27.8-21.26,36.93-36.63c9.13-15.36,13.69-32.11,13.69-50.21C601.09,81.49,596.53,64.76,587.4,49.39z M500.27,134.7
	c-19.13,0-34.63-15.51-34.63-34.65c0-19.14,15.51-34.65,34.63-34.65c19.13,0,34.63,15.51,34.63,34.65
	C534.91,119.19,519.4,134.7,500.27,134.7z"/>
</svg>
