<?xml version="1.0" encoding="utf-8"?>
<!-- Generator: Adobe Illustrator 26.2.1, SVG Export Plug-In . SVG Version: 6.00 Build 0)  -->
<svg version="1.1" id="LOGOS" xmlns="http://www.w3.org/2000/svg" xmlns:xlink="http://www.w3.org/1999/xlink" x="0px" y="0px"
	 viewBox="0 0 1863.98 1048.49" style="enable-background:new 0 0 1863.98 1048.49;" xml:space="preserve">
<style type="text/css">
	.st0{fill:#FFFFFF;stroke:#FFFFFF;stroke-width:10;stroke-miterlimit:10;}
	.st1{fill:#133629;}
	.st2{fill:#FFFFFF;}
	.st3{fill:#133629;stroke:#133629;stroke-width:10;stroke-miterlimit:10;}
	.st4{fill:#F0EBDE;}
	.st5{stroke:#231F20;stroke-width:10;stroke-miterlimit:10;}
</style>
<rect y="0" class="st5" width="1863.98" height="1048.49"/>
<path class="st2" d="M1024.68,523.29v0.19c0,45.38,36.82,82.16,82.23,82.16h34.75v-21.31h-34.19c-34.12,0-61.7-28-60.97-62.26
	c0.71-33.31,28.74-59.6,62.09-59.6h33.07v-21.11h-34.98C1061.39,441.36,1024.68,478.04,1024.68,523.29z M1643.97,441.36h-76.64
	v164.28h21.14v-87.82c0-30.57,24.8-55.35,55.4-55.35c30.59,0,55.4,24.78,55.4,55.35v87.82h20.96v-88.1
	C1720.22,475.47,1686.08,441.36,1643.97,441.36z M1261.43,496.43c0,4.54-1.61,8.37-4.82,11.5c-3.21,3.13-7.01,4.69-11.39,4.69
	h-48.85c-4.54,0-8.38-1.56-11.51-4.69c-3.13-3.13-4.7-6.96-4.7-11.5v-55.07h-21.14v164.28h21.14v-56.17c0-4.54,1.56-8.37,4.7-11.5
	c3.13-3.13,6.97-4.69,11.51-4.69h48.85c4.38,0,8.18,1.57,11.39,4.69c3.21,3.13,4.82,6.96,4.82,11.5v56.17h20.91V441.36h-20.91
	V496.43z M1461.66,441.36v164.28h88.3V441.36H1461.66z M1505.81,519.37c-15.75,0-28.53-12.77-28.53-28.53
	c0-15.75,12.77-28.53,28.53-28.53c15.75,0,28.53,12.77,28.53,28.53C1534.34,506.6,1521.57,519.37,1505.81,519.37z M1384.28,450.1
	c-2.79-6.19-6.74-9.29-11.85-9.29c-5.11,0-9.06,3.1-11.85,9.29l-70.4,155.54h163.81L1384.28,450.1z M1372.43,578.66
	c-15.75,0-28.53-12.77-28.53-28.53s12.77-28.53,28.53-28.53c15.75,0,28.53,12.77,28.53,28.53S1388.19,578.66,1372.43,578.66z
	 M411.24,607.45c24.91,0,49.36-8.38,64.08-19.7v-72.23h-67.47v31.25h31.25v19.02c-9.28,4.98-17.89,7.02-27.85,7.02
	c-27.4,0-43.47-21.28-43.47-47.32c0-29.89,19.02-47.32,41.89-47.32c17.21,0,29.89,7.47,38.49,15.85l26.72-22.64
	c-16.53-19.02-41.89-28.75-65.21-28.75c-51.4,0-81.51,36.23-81.51,82.87C328.14,577.79,364.82,607.45,411.24,607.45z M498.7,605.64
	h35.32v-55.7c0-17.21,8.15-25.59,20.38-25.59c11.55,0,17.66,5.21,17.66,23.55v57.74h35.32V539.3c0-35.09-16.76-46.41-39.62-46.41
	c-12.91,0-24.68,4.98-33.28,14.94h-0.45v-12.91H498.7V605.64z M685.05,492.89c-35.77,0-60,23.77-60,57.51
	c0,33.51,24.22,57.28,60,57.28c34.87,0,59.78-23.32,59.78-57.28C744.83,516.21,719.91,492.89,685.05,492.89z M685.05,576.43
	c-14.04,0-24.22-11.32-24.22-26.04c0-15.17,9.96-26.04,24.22-26.04c13.81,0,24,10.64,24,26.04
	C709.05,565.57,698.41,576.43,685.05,576.43z M800.27,607.68c30.33,0,45.06-14.94,45.06-35.55c0-21.74-13.36-28.08-37.81-36.45
	c-11.1-3.85-15.18-6.34-15.18-9.74c0-4.3,4.76-6.11,8.84-6.11c7.47,0,16.98,3.85,24.68,11.55l16.76-24.68
	c-12.91-9.51-25.14-13.81-41.89-13.81c-23.1,0-41.44,12.91-41.44,35.32c0,21.28,16.3,30.34,34.87,36c13.81,4.3,17.2,6.57,17.2,10.19
	c0,4.08-3.62,6.57-10.64,6.57c-10.19,0-19.7-4.08-28.98-12.45l-16.53,22.87C767.43,602.25,782.83,607.68,800.27,607.68z
	 M882.32,481.11c12.23,0,21.29-8.83,21.29-20.38c0-11.09-9.06-19.92-21.29-19.92c-12.22,0-21.05,9.06-21.05,19.92
	C861.27,472.28,870.1,481.11,882.32,481.11z M864.66,605.64h35.32V494.92h-35.32V605.64z M962.11,607.68
	c30.34,0,45.06-14.94,45.06-35.55c0-21.74-13.35-28.08-37.81-36.45c-11.09-3.85-15.17-6.34-15.17-9.74c0-4.3,4.75-6.11,8.83-6.11
	c7.47,0,16.98,3.85,24.68,11.55l16.76-24.68c-12.91-9.51-25.13-13.81-41.89-13.81c-23.1,0-41.43,12.91-41.43,35.32
	c0,21.28,16.3,30.34,34.87,36c13.81,4.3,17.21,6.57,17.21,10.19c0,4.08-3.62,6.57-10.64,6.57c-10.19,0-19.7-4.08-28.98-12.45
	l-16.53,22.87C929.29,602.25,944.68,607.68,962.11,607.68z M171.24,514.12c0-5.05,1.66-9.64,4.54-13.28l30.41,30.4
	c-3.71,2.87-8.31,4.53-13.29,4.53C180.88,535.77,171.17,526.06,171.24,514.12z M261.7,535.71c11.95,0.06,21.66-9.64,21.66-21.65
	c0-4.98-1.66-9.58-4.54-13.28l-30.41,30.4C252.05,534.05,256.65,535.71,261.7,535.71z M285.21,494.52
	c4.47,5.36,7.16,12.13,7.16,19.67c0,16.92-13.74,30.65-30.66,30.65c-7.47,0-14.31-2.68-19.68-7.15l-14.76,14.75l-14.76-14.75
	c-5.37,4.47-12.14,7.15-19.68,7.15c-16.93,0-30.66-13.73-30.66-30.65c0-7.47,2.68-14.3,7.16-19.67l-6.9-6.9l-6.58-6.58
	c-7.67,12.64-12.07,27.4-12.07,43.23c0,46.11,37.37,83.4,83.43,83.4c46.06,0,83.43-37.36,83.43-83.4
	c0.13-15.9-4.28-30.65-11.95-43.23L285.21,494.52z M287.63,466.67c-15.14-15.9-36.61-25.86-60.37-25.86
	c-23.77,0-45.17,9.96-60.37,25.86c-2.04,2.17-4.02,4.47-5.88,6.83l66.18,66.16l66.18-66.22
	C291.72,471.14,289.74,468.78,287.63,466.67z M227.26,524.21l-51.3-51.28c13.67-13.73,31.75-21.27,51.3-21.27
	c19.55,0,37.69,7.54,51.3,21.27L227.26,524.21z"/>
</svg>
