<?xml version="1.0" encoding="utf-8"?>
<!-- Generator: Adobe Illustrator 26.2.1, SVG Export Plug-In . SVG Version: 6.00 Build 0)  -->
<svg version="1.1" id="LOGOS" xmlns="http://www.w3.org/2000/svg" xmlns:xlink="http://www.w3.org/1999/xlink" x="0px" y="0px"
	 viewBox="0 0 1863.98 1048.49" style="enable-background:new 0 0 1863.98 1048.49;" xml:space="preserve">
<style type="text/css">
	.st0{fill:#FFFFFF;stroke:#FFFFFF;stroke-width:10;stroke-miterlimit:10;}
	.st1{fill:#133629;}
	.st2{fill:#FFFFFF;}
	.st3{fill:#133629;stroke:#133629;stroke-width:10;stroke-miterlimit:10;}
	.st4{fill:#F0EBDE;}
	.st5{stroke:#231F20;stroke-width:10;stroke-miterlimit:10;}
</style>
<rect x="0" y="0" class="st0" width="1863.98" height="1048.49"/>
<path d="M765.13,606.32h88.2V442.23h-88.2V606.32z M698.83,442.19h52.28v21.18h-48.35c-7.98,0-14.51,2.31-19.59,6.92
	c-5.09,4.61-7.63,10.67-7.63,18.17c0,7.66,2.54,13.8,7.63,18.41c5.08,4.61,11.62,6.92,19.59,6.92h48.35v92.53H645.57V585.1h55.33
	c8.6,0,15.61-2.42,21-7.27c5.4-4.84,8.1-11.02,8.1-18.52c0-7.5-2.7-13.6-8.1-18.29c-5.4-4.69-12.4-7.03-21-7.03l-7.02,0.12
	c-22.58,0-40.92-18.21-41.06-40.77l-0.03-4.95v-0.18C652.78,462.79,673.4,442.19,698.83,442.19z M917.81,442.19h50.66v21.18h-46.72
	c-7.98,0-14.51,2.31-19.59,6.92c-5.09,4.61-7.63,10.67-7.63,18.17c0,7.66,2.54,13.8,7.63,18.41c5.08,4.61,11.62,6.92,19.59,6.92
	h46.72v45.64v0c0,25.9-21.01,46.89-46.93,46.89h-3.29h-50.48V585.1h50.48c8.6,0,15.61-2.42,21-7.27c5.4-4.84,8.1-11.02,8.1-18.52
	c0-7.5-2.7-13.6-8.1-18.29c-5.4-4.69-12.4-6.91-21-6.91h-5.4h-40.8l-0.29-45.72v-0.18C871.76,462.79,892.38,442.19,917.81,442.19z
	 M225.9,442.19h59.14v21.18h-57.49c-10.79,0-20.77,2.7-29.92,8.09c-9.15,5.39-16.39,12.74-21.71,22.04
	c-5.32,9.3-7.98,19.42-7.98,30.36c0,10.94,2.66,21.99,7.98,31.21c5.32,9.23,12.55,16.53,21.71,21.92
	c9.15,5.39,19.13,8.09,29.92,8.09h34.96V534.1h-56.79v-20.63h79.32v92.85h-58.2l-0.88,0c-45.38,0.03-82.19-36.72-82.19-82.06v0v0
	C143.77,478.93,180.54,442.19,225.9,442.19z M457.3,518.38v88h-20.93v-87.72c0-30.53-24.77-55.28-55.33-55.28
	c-30.56,0-55.33,24.75-55.33,55.28v87.72h-21.11V442.29h76.55C423.2,442.29,457.3,476.36,457.3,518.38z M837.72,491.72
	c0,15.74-12.76,28.49-28.49,28.49s-28.49-12.76-28.49-28.49s12.76-28.49,28.49-28.49S837.72,475.98,837.72,491.72z M1025.48,524.12
	v0.19c0,45.32,36.77,82.01,82.13,82.01h34.71V585.1h-34.15c-34.08,0-61.63-27.97-60.9-62.19c0.71-33.27,28.71-59.53,62.02-59.53
	h33.03v-21.09h-34.94C1062.15,442.29,1025.48,478.93,1025.48,524.12z M1644.06,442.29h-76.55v164.03h21.11v-87.66
	c0-30.53,24.77-55.28,55.33-55.28c30.56,0,55.33,24.75,55.33,55.28v87.66h20.93v-87.94
	C1720.22,476.36,1686.12,442.29,1644.06,442.29z M1261.96,497.3c0,4.53-1.61,8.36-4.81,11.49c-3.21,3.13-7,4.69-11.38,4.69h-48.8
	c-4.54,0-8.37-1.56-11.5-4.69c-3.13-3.12-4.69-6.95-4.69-11.49v-55.01h-21.11v164.03h21.11v-56.04c0-4.53,1.56-8.36,4.69-11.49
	c3.13-3.12,6.96-4.69,11.5-4.69h48.8c4.38,0,8.17,1.56,11.38,4.69c3.2,3.13,4.81,6.96,4.81,11.49v56.04h20.88V442.29h-20.88V497.3z
	 M1461.96,442.29v164.03h88.2V442.29H1461.96z M1506.06,520.21c-15.74,0-28.49-12.76-28.49-28.49c0-15.74,12.76-28.49,28.49-28.49
	c15.74,0,28.49,12.76,28.49,28.49C1534.55,507.45,1521.8,520.21,1506.06,520.21z M1384.67,451.02c-2.79-6.18-6.73-9.28-11.84-9.28
	c-5.1,0-9.05,3.09-11.84,9.28l-70.32,155.3h163.62L1384.67,451.02z M1372.84,579.43c-15.74,0-28.49-12.76-28.49-28.49
	s12.76-28.49,28.49-28.49c15.74,0,28.49,12.76,28.49,28.49S1388.57,579.43,1372.84,579.43z M628.33,482.48
	c-7.53-12.67-17.69-22.63-30.46-29.88c-12.78-7.24-26.7-10.87-41.76-10.87c-14.61,0-28.41,3.63-41.42,10.87
	c-13.01,7.25-23.17,17.21-30.46,29.88c-7.31,12.68-10.95,26.48-10.95,41.42c0,14.94,3.65,28.75,10.95,41.42
	c7.3,12.68,17.46,22.75,30.46,30.22c13.01,7.47,26.8,11.2,41.42,11.2c15.06,0,28.97-3.73,41.76-11.2
	c12.77-7.47,22.93-17.54,30.46-30.22c7.53-12.67,11.29-26.49,11.29-41.42C639.63,508.97,635.86,495.16,628.33,482.48z
	 M556.46,552.86c-15.78,0-28.57-12.8-28.57-28.59c0-15.79,12.79-28.59,28.57-28.59s28.57,12.8,28.57,28.59
	C585.03,540.06,572.24,552.86,556.46,552.86z"/>
</svg>
