<?xml version="1.0" encoding="utf-8"?>
<!-- Generator: Adobe Illustrator 26.2.1, SVG Export Plug-In . SVG Version: 6.00 Build 0)  -->
<svg version="1.1" id="LOGOS" xmlns="http://www.w3.org/2000/svg" xmlns:xlink="http://www.w3.org/1999/xlink" x="0px" y="0px"
	 viewBox="0 0 1000 1000" style="enable-background:new 0 0 1000 1000;" xml:space="preserve">
<style type="text/css">
	.st0{fill:#FFFFFF;stroke:#FFFFFF;stroke-width:10;stroke-miterlimit:10;}
	.st1{fill:#133629;}
	.st2{fill:#FFFFFF;}
	.st3{fill:#133629;stroke:#133629;stroke-width:10;stroke-miterlimit:10;}
	.st4{fill:#F0EBDE;}
	.st5{stroke:#231F20;stroke-width:10;stroke-miterlimit:10;}
</style>
<rect x="0" y="0" class="st0" width="1000" height="1000"/>
<path d="M145.28,599.65v0.19c0,46.28,37.55,83.8,83.87,83.8h35.44v-21.74h-34.88c-34.81,0-62.93-28.56-62.19-63.51
	c0.73-33.98,29.32-60.79,63.33-60.79h33.73v-21.53h-35.67C182.72,516.08,145.28,553.49,145.28,599.65z M776.95,516.08h-78.17v167.57
	h21.56v-89.58c0-31.18,25.3-56.46,56.5-56.46c31.21,0,56.5,25.28,56.5,56.46v89.58h21.38v-89.86
	C854.72,550.87,819.9,516.08,776.95,516.08z M386.76,572.25c0,4.63-1.64,8.54-4.91,11.73c-3.27,3.19-7.15,4.79-11.62,4.79H320.4
	c-4.63,0-8.55-1.59-11.74-4.79c-3.2-3.19-4.79-7.1-4.79-11.73v-56.17h-21.56v167.57h21.56v-57.29c0-4.63,1.6-8.54,4.79-11.73
	c3.19-3.19,7.11-4.79,11.74-4.79h49.83c4.47,0,8.35,1.6,11.62,4.79c3.27,3.19,4.91,7.1,4.91,11.73v57.29h21.32V516.08h-21.32V572.25
	z M591,516.08v167.57h90.06V516.08H591z M636.03,595.65c-16.07,0-29.1-13.03-29.1-29.1c0-16.07,13.03-29.1,29.1-29.1
	s29.1,13.03,29.1,29.1C665.13,582.62,652.1,595.65,636.03,595.65z M512.07,524.99c-2.84-6.31-6.87-9.47-12.09-9.47
	c-5.21,0-9.24,3.16-12.09,9.47l-71.81,158.65h167.08L512.07,524.99z M499.99,656.13c-16.07,0-29.1-13.03-29.1-29.1
	c0-16.07,13.03-29.1,29.1-29.1c16.07,0,29.1,13.03,29.1,29.1C529.08,643.1,516.05,656.13,499.99,656.13z M645.73,316.82h53.39v21.63
	h-49.37c-8.15,0-14.82,2.36-20.01,7.06c-5.19,4.71-7.79,10.9-7.79,18.56c0,7.82,2.59,14.09,7.79,18.8
	c5.19,4.71,11.86,7.06,20.01,7.06h49.37v94.49H591.34v-21.68h56.5c8.78,0,15.94-2.47,21.45-7.42c5.51-4.95,8.27-11.25,8.27-18.92
	c0-7.66-2.76-13.89-8.27-18.68c-5.51-4.79-12.66-7.18-21.45-7.18l-7.17,0.13c-23.06,0-41.79-18.6-41.93-41.63l-0.03-5.06v-0.18
	C598.71,337.85,619.76,316.82,645.73,316.82z M869.35,316.82h51.73v21.63h-47.71c-8.15,0-14.82,2.36-20.01,7.06
	c-5.19,4.71-7.79,10.9-7.79,18.56c0,7.82,2.59,14.09,7.79,18.8c5.19,4.71,11.86,7.06,20.01,7.06h47.71v46.61v0
	c0,26.45-21.46,47.89-47.93,47.89h-3.36h-51.55v-21.68h51.55c8.79,0,15.94-2.47,21.45-7.42c5.51-4.95,8.27-11.25,8.27-18.92
	c0-7.66-2.76-13.89-8.27-18.68c-5.51-4.79-12.66-7.06-21.45-7.06h-5.51h-41.67l-0.29-46.69v-0.18
	C822.33,337.85,843.38,316.82,869.35,316.82z M162.79,316.82h60.39v21.63h-58.71c-11.02,0-21.21,2.75-30.55,8.26
	c-9.35,5.51-16.74,13.01-22.17,22.51c-5.43,9.5-8.15,19.84-8.15,31.01c0,11.18,2.71,22.46,8.15,31.88
	c5.43,9.42,12.82,16.88,22.17,22.39c9.35,5.51,19.53,8.26,30.55,8.26h35.71v-52.07h-57.99v-21.07h81v94.82h-59.43l-0.9,0
	c-46.35,0.03-83.93-37.5-83.93-83.8v0v0C78.92,354.34,116.47,316.82,162.79,316.82z M399.09,394.62v89.86h-21.37V394.9
	c0-31.18-25.3-56.46-56.5-56.46c-31.21,0-56.5,25.28-56.5,56.46v89.58h-21.56V316.92h78.17
	C364.27,316.92,399.09,351.71,399.09,394.62z M713.43,316.86v167.57h90.06V316.86H713.43z M758.46,396.49
	c-16.07,0-29.1-13.03-29.1-29.1c0-16.07,13.03-29.1,29.1-29.1s29.1,13.03,29.1,29.1C787.56,383.46,774.53,396.49,758.46,396.49z
	 M573.74,357.96c-7.69-12.94-18.07-23.11-31.11-30.51c-13.05-7.39-27.26-11.1-42.64-11.1c-14.92,0-29.01,3.71-42.29,11.1
	c-13.28,7.4-23.66,17.57-31.11,30.51c-7.46,12.95-11.19,27.05-11.19,42.3c0,15.25,3.72,29.36,11.19,42.3
	c7.45,12.95,17.83,23.23,31.11,30.86c13.28,7.63,27.37,11.44,42.29,11.44c15.38,0,29.59-3.81,42.64-11.44
	c13.04-7.63,23.42-17.91,31.11-30.86c7.69-12.94,11.53-27.05,11.53-42.3C585.28,385.01,581.43,370.91,573.74,357.96z M500.35,429.83
	c-16.11,0-29.18-13.07-29.18-29.19c0-16.12,13.06-29.19,29.18-29.19c16.11,0,29.18,13.07,29.18,29.19
	C529.52,416.76,516.46,429.83,500.35,429.83z"/>
</svg>
