<?xml version="1.0" encoding="utf-8"?>
<!-- Generator: Adobe Illustrator 26.2.1, SVG Export Plug-In . SVG Version: 6.00 Build 0)  -->
<svg version="1.1" id="LOGOS" xmlns="http://www.w3.org/2000/svg" xmlns:xlink="http://www.w3.org/1999/xlink" x="0px" y="0px"
	 viewBox="0 0 1000 236.98" style="enable-background:new 0 0 1000 236.98;" xml:space="preserve">
<style type="text/css">
	.st0{fill:#FFFFFF;stroke:#FFFFFF;stroke-width:10;stroke-miterlimit:10;}
	.st1{fill:#133629;}
	.st2{fill:#FFFFFF;}
	.st3{fill:#133629;stroke:#133629;stroke-width:10;stroke-miterlimit:10;}
	.st4{fill:#F0EBDE;}
	.st5{stroke:#231F20;stroke-width:10;stroke-miterlimit:10;}
</style>
<path class="st2" d="M0,118.58v0.27c0,65.24,52.93,118.12,118.22,118.12h49.96v-30.64h-49.16c-49.06,0-88.71-40.26-87.65-89.52
	c1.03-47.89,41.32-85.68,89.27-85.68h47.55V0.79H117.9C52.78,0.79,0,53.53,0,118.58z M890.38,0.79H780.19v236.19h30.39V110.72
	c0-43.95,35.66-79.58,79.64-79.58c43.99,0,79.64,35.63,79.64,79.58v126.26H1000V110.32C1000,49.83,950.92,0.79,890.38,0.79z
	 M340.39,79.97c0,6.53-2.31,12.04-6.92,16.53c-4.62,4.5-10.08,6.75-16.38,6.75h-70.24c-6.53,0-12.05-2.25-16.55-6.75
	c-4.51-4.5-6.75-10.01-6.75-16.53V0.79h-30.39v236.19h30.39v-80.75c0-6.52,2.25-12.03,6.75-16.53c4.5-4.5,10.02-6.75,16.55-6.75
	h70.24c6.3,0,11.76,2.25,16.38,6.75c4.61,4.5,6.92,10.01,6.92,16.53v80.75h30.06V0.79h-30.06V79.97z M628.27,0.79v236.19h126.95
	V0.79H628.27z M691.74,112.95c-22.65,0-41.01-18.36-41.01-41.01c0-22.65,18.36-41.01,41.01-41.01c22.65,0,41.01,18.36,41.01,41.01
	C732.76,94.59,714.39,112.95,691.74,112.95z M517.02,13.35C513.01,4.45,507.33,0,499.98,0c-7.35,0-13.03,4.45-17.04,13.35
	L381.72,236.98h235.51L517.02,13.35z M499.98,198.19c-22.65,0-41.01-18.36-41.01-41.01c0-22.65,18.36-41.01,41.01-41.01
	c22.65,0,41.01,18.36,41.01,41.01C540.99,179.83,522.63,198.19,499.98,198.19z"/>
</svg>
