<?xml version="1.0" encoding="utf-8"?>
<!-- Generator: Adobe Illustrator 26.2.1, SVG Export Plug-In . SVG Version: 6.00 Build 0)  -->
<svg version="1.1" id="LOGOS" xmlns="http://www.w3.org/2000/svg" xmlns:xlink="http://www.w3.org/1999/xlink" x="0px" y="0px"
	 viewBox="0 0 1000 800.69" style="enable-background:new 0 0 1000 800.69;" xml:space="preserve">
<style type="text/css">
	.st0{fill:#FFFFFF;stroke:#FFFFFF;stroke-width:10;stroke-miterlimit:10;}
	.st1{fill:#133629;}
	.st2{fill:#FFFFFF;}
	.st3{fill:#133629;stroke:#133629;stroke-width:10;stroke-miterlimit:10;}
	.st4{fill:#F0EBDE;}
	.st5{stroke:#231F20;stroke-width:10;stroke-miterlimit:10;}
</style>
<path d="M339.31,211.15c0-14.49,4.77-27.69,13.02-38.14l87.31,87.28c-10.64,8.25-23.85,13.02-38.15,13.02
	C367.01,273.31,339.13,245.43,339.31,211.15z M599.05,273.12c34.3,0.18,62.18-27.69,62.18-62.16c0-14.3-4.77-27.5-13.02-38.14
	L560.9,260.1C571.35,268.36,584.56,273.12,599.05,273.12z M500,284.49L309.96,94.53c5.32-6.78,11.01-13.39,16.88-19.62
	C370.49,29.25,431.94,0.64,500.18,0.64c68.24,0,129.87,28.61,173.34,74.26c6.05,6.05,11.74,12.84,16.51,19.44L500,284.49z
	 M352.88,92.88l147.3,147.24l147.3-147.24c-39.07-39.42-91.17-61.06-147.3-61.06S392.14,53.45,352.88,92.88z M500,479.78
	c132.25,0,239.56-107.27,239.56-239.48c0.37-45.66-12.29-88.02-34.3-124.14l-38.7,38.69c12.84,15.4,20.54,34.84,20.54,56.48
	c0,48.59-39.44,88.02-88.05,88.02c-21.46,0-41.09-7.7-56.5-20.54l-42.37,42.36l-42.37-42.36c-15.41,12.84-34.85,20.54-56.5,20.54
	c-48.61,0-88.05-39.42-88.05-88.02c0-21.45,7.7-41.07,20.54-56.48L314,135.05l-18.89-18.89c-22.01,36.31-34.67,78.66-34.67,124.14
	C260.43,372.69,367.74,479.78,500,479.78z M0,682.3v0.27c0,65.24,52.93,118.12,118.22,118.12h49.96v-30.64h-49.16
	c-49.06,0-88.71-40.26-87.65-89.52c1.03-47.89,41.32-85.68,89.27-85.68h47.55V564.5H117.9C52.78,564.5,0,617.24,0,682.3z
	 M890.38,564.5H780.19v236.19h30.39V674.43c0-43.95,35.66-79.58,79.64-79.58c43.99,0,79.64,35.63,79.64,79.58v126.26H1000V674.03
	C1000,613.54,950.92,564.5,890.38,564.5z M340.39,643.68c0,6.53-2.31,12.04-6.92,16.53c-4.62,4.5-10.08,6.75-16.38,6.75h-70.24
	c-6.53,0-12.05-2.24-16.55-6.75c-4.51-4.5-6.75-10.01-6.75-16.53V564.5h-30.39v236.19h30.39v-80.75c0-6.52,2.25-12.03,6.75-16.53
	c4.5-4.5,10.02-6.75,16.55-6.75h70.24c6.3,0,11.76,2.25,16.38,6.75c4.61,4.5,6.92,10.01,6.92,16.53v80.75h30.06V564.5h-30.06V643.68
	z M628.27,564.5v236.19h126.95V564.5H628.27z M691.74,676.66c-22.65,0-41.01-18.36-41.01-41.01c0-22.65,18.36-41.01,41.01-41.01
	c22.65,0,41.01,18.36,41.01,41.01C732.76,658.3,714.39,676.66,691.74,676.66z M517.02,577.06c-4.01-8.9-9.69-13.35-17.04-13.35
	c-7.35,0-13.03,4.45-17.04,13.35L381.72,800.69h235.51L517.02,577.06z M499.98,761.91c-22.65,0-41.01-18.36-41.01-41.01
	c0-22.65,18.36-41.01,41.01-41.01c22.65,0,41.01,18.36,41.01,41.01C540.99,743.55,522.63,761.91,499.98,761.91z"/>
</svg>
