<?xml version="1.0" encoding="utf-8"?>
<!-- Generator: Adobe Illustrator 26.2.1, SVG Export Plug-In . SVG Version: 6.00 Build 0)  -->
<svg version="1.1" id="LOGOS" xmlns="http://www.w3.org/2000/svg" xmlns:xlink="http://www.w3.org/1999/xlink" x="0px" y="0px"
	 viewBox="0 0 1261.95 236.98" style="enable-background:new 0 0 1261.95 236.98;" xml:space="preserve">
<style type="text/css">
	.st0{fill:#FFFFFF;stroke:#FFFFFF;stroke-width:10;stroke-miterlimit:10;}
	.st1{fill:#133629;}
	.st2{fill:#FFFFFF;}
	.st3{fill:#133629;stroke:#133629;stroke-width:10;stroke-miterlimit:10;}
	.st4{fill:#F0EBDE;}
	.st5{stroke:#231F20;stroke-width:10;stroke-miterlimit:10;}
</style>
<path d="M37.72,104.12c0-7.17,2.36-13.69,6.44-18.86l43.19,43.17c-5.26,4.08-11.79,6.44-18.87,6.44
	C51.42,134.86,37.63,121.08,37.72,104.12z M166.19,134.77c16.97,0.09,30.76-13.7,30.76-30.75c0-7.07-2.36-13.6-6.44-18.86
	l-43.19,43.17C152.49,132.41,159.02,134.77,166.19,134.77z M199.58,76.27c6.35,7.62,10.16,17.23,10.16,27.93
	c0,24.03-19.51,43.53-43.55,43.53c-10.61,0-20.32-3.81-27.94-10.16l-20.96,20.95l-20.96-20.95c-7.62,6.35-17.24,10.16-27.94,10.16
	c-24.04,0-43.55-19.5-43.55-43.53c0-10.61,3.81-20.32,10.16-27.93l-9.8-9.79l-9.34-9.34C4.97,75.09-1.29,96.04-1.29,118.54
	c0,65.48,53.07,118.45,118.49,118.45c65.41,0,118.49-53.06,118.49-118.45c0.18-22.58-6.08-43.53-16.97-61.4L199.58,76.27z
	 M117.2,140.39L23.2,46.43c2.63-3.36,5.44-6.62,8.35-9.7C53.14,14.15,83.54,0,117.29,0c33.75,0,64.23,14.15,85.74,36.73
	c2.99,2.99,5.81,6.35,8.17,9.61L117.2,140.39z M44.43,45.62l72.85,72.83l72.85-72.83c-19.32-19.5-45.09-30.2-72.85-30.2
	C89.52,15.42,63.85,26.12,44.43,45.62z M261.95,118.58v0.27c0,65.24,52.93,118.12,118.22,118.12h49.96v-30.64h-49.16
	c-49.06,0-88.71-40.26-87.66-89.52c1.03-47.89,41.32-85.68,89.27-85.68h47.55V0.79h-50.29C314.74,0.79,261.95,53.53,261.95,118.58z
	 M890.22,0.79h126.95v236.19H890.22V0.79z M912.69,71.94c0,22.65,18.36,41.01,41.01,41.01c22.65,0,41.01-18.36,41.01-41.01
	c0-22.65-18.36-41.01-41.01-41.01C931.05,30.93,912.69,49.29,912.69,71.94z M602.34,79.97c0,6.53-2.31,12.04-6.92,16.53
	c-4.62,4.5-10.08,6.75-16.38,6.75H508.8c-6.53,0-12.05-2.24-16.55-6.75c-4.51-4.5-6.75-10.01-6.75-16.53V0.79h-30.39v236.19h30.39
	v-80.75c0-6.52,2.25-12.03,6.75-16.53c4.5-4.5,10.02-6.75,16.55-6.75h70.24c6.3,0,11.76,2.25,16.38,6.75
	c4.61,4.5,6.92,10.01,6.92,16.53v80.75h30.06V0.79h-30.06V79.97z M1152.33,0.79h-110.19v236.19h30.39V110.72
	c0-43.95,35.66-79.58,79.64-79.58c43.99,0,79.64,35.63,79.64,79.58v126.26h30.13V110.32C1261.95,49.83,1212.87,0.79,1152.33,0.79z
	 M778.97,13.35l100.22,223.63H643.68L744.9,13.35C748.91,4.45,754.59,0,761.93,0C769.28,0,774.96,4.45,778.97,13.35z M761.93,116.17
	c-22.65,0-41.01,18.36-41.01,41.01c0,22.65,18.36,41.01,41.01,41.01c22.65,0,41.01-18.36,41.01-41.01
	C802.94,134.53,784.58,116.17,761.93,116.17z"/>
</svg>
